<svg viewBox="0 0 1290 972" fill="none" xmlns="http://www.w3.org/2000/svg"
     preserveAspectRatio="none">
  <g id="Group 6">
    <path id="Rectangle 40" d="M-11.0132 433.724L1437.1 422.713L1442.72 744.68L-5.39448 7550.691L-11.0132 4330.724Z"
          fill="#0099FF"/>
    <path id="top" fill-rule="evenodd" clip-rule="evenodd"
          d="M-85.7457 446.867L114.945 371.145C299.706 300.197 366.155 403.959 495.277 342.42C577.51 294.411 661.131 226.687 775.465 202.885C889.8 179.083 1024.86 191.4 1139.2 167.599C1253.53 143.797 1347.14 83.8775 1393.94 53.9175L1440.15 20.0006L1462.58 170.358L1474.76 252.024C1418.39 265.314 1333.27 313.269 1220.53 339.849C1107.79 366.428 979.326 337.611 866.586 364.191C753.846 390.771 718.792 459.182 606.052 485.762C493.312 512.342 432.935 457.194 245.787 497.338L85.6101 529.631L-68.8689 560.012L-85.7457 446.867Z"
          fill="#D7E6F0"/>
    <path id="middle" fill-rule="evenodd" clip-rule="evenodd"
          d="M-43.3335 517.833L157.357 442.111C342.118 371.163 408.567 474.925 537.689 413.387C619.922 365.377 703.543 297.653 817.878 273.851C932.212 250.05 1067.27 262.367 1181.61 238.565C1295.94 214.764 1389.55 154.844 1436.35 124.884L1482.56 90.9669L1504.99 241.325L1517.17 322.991C1460.8 336.28 1375.69 384.235 1262.95 410.815C1150.21 437.395 1021.74 408.577 908.998 435.157C796.258 461.737 761.204 530.148 648.464 556.728C535.724 583.308 475.347 528.161 288.199 568.304L128.022 600.598L-26.4567 630.978L-43.3335 517.833Z"
          fill="#ADD5F0"/>
    <path id="bottom" fill-rule="evenodd" clip-rule="evenodd"
          d="M-40.0432 622.664L158.588 543.413C341.364 469.061 416.503 587.796 543.368 522.381C623.522 470.797 703.654 397.07 818.222 373.681C932.79 350.292 1071.07 368.162 1185.64 344.772C1300.21 321.383 1391.06 256.735 1436.49 224.411L1481.03 187.616L1514.78 357.478L1533.11 449.737C1476.74 463.019 1393.65 514.455 1280.9 541.018C1168.16 567.581 1035.39 531.339 922.642 557.902C809.898 584.465 779.218 660.407 666.474 686.97C553.73 713.533 488.304 649.684 300.859 689.301L140.278 720.885L-14.6459 750.486L-40.0432 622.664Z"
          fill="#0099FF"/>
  </g>
</svg>
