<svg width="1440" height="564" viewBox="0 0 1440 564" fill="none" xmlns="http://www.w3.org/2000/svg">
<path fill-rule="evenodd" clip-rule="evenodd" d="M-40.0432 435.664L158.588 356.413C341.364 282.061 416.503 400.796 543.368 335.381C623.522 283.797 703.654 210.07 818.222 186.681C932.79 163.292 1071.07 181.162 1185.64 157.772C1300.21 134.383 1391.06 69.7347 1436.49 37.4105L1481.03 0.616083L1514.78 170.478L1533.11 262.737C1476.74 276.019 1393.65 327.455 1280.9 354.018C1168.16 380.581 1035.39 344.339 922.642 370.902C809.898 397.465 779.218 473.407 666.474 499.97C553.73 526.533 488.304 462.684 300.859 502.301L140.278 533.885L-14.6459 563.486L-40.0432 435.664Z" fill="#0099FF"/>
</svg>
