<svg width="1837" height="343" viewBox="0 0 1837 343" fill="none" xmlns="http://www.w3.org/2000/svg">
<g clip-path="url(#clip0)">
<path d="M-1371 140.5C-1003.6 140.5 -660.693 -80 -293.293 -80C74.1067 -80 417.013 140.5 784.413 140.5C1151.81 140.5 1494.72 -80 1862.12 -80C2229.52 -80 2572.43 140.5 2939.83 140.5V679.5H-1371V140.5Z" fill="#D7E6F0"/>
<path d="M-1371 201.5C-1003.6 201.5 -660.693 -19 -293.293 -19C74.1067 -19 417.013 201.5 784.413 201.5C1151.81 201.5 1494.72 -19 1862.12 -19C2229.52 -19 2572.43 201.5 2939.83 201.5V740.5H-1371V201.5Z" fill="#ADD5F0"/>
<path d="M-1371 280.5C-1003.6 280.5 -660.693 60 -293.293 60C74.1067 60 417.013 280.5 784.413 280.5C1151.81 280.5 1494.72 60 1862.12 60C2229.52 60 2572.43 280.5 2939.83 280.5V819.5H-1371V280.5Z" fill="#0099FF"/>
</g>
<defs>
<clipPath id="clip0">
<rect width="1837" height="343" fill="white"/>
</clipPath>
</defs>
</svg>
