<svg viewBox="0 0 768 554" fill="none" xmlns="http://www.w3.org/2000/svg">
  <path fill-rule="evenodd" clip-rule="evenodd"
        d="M-63.1229 266.429L46.1303 219.501C146.69 175.474 185.128 245.78 255.195 207.045C299.663 176.5 344.55 132.844 407.132 118.994C469.714 105.143 544.352 115.724 606.934 101.873C669.515 88.0232 720.041 49.7424 745.304 30.6019L770.173 8.81453L785.173 109.395L793.32 164.024C762.493 171.889 716.434 202.346 654.779 218.076C593.125 233.805 521.83 212.346 460.175 228.076C398.521 243.805 380.407 288.773 318.753 304.503C257.098 320.232 222.861 282.425 120.444 305.885L32.7514 324.588L-51.8353 342.117L-63.1229 266.429Z"
        fill="#D7E6F0"/>
  <path fill-rule="evenodd" clip-rule="evenodd"
        d="M-48.2968 330.802L60.9565 283.873C161.516 239.846 199.954 310.152 270.022 271.417C314.489 240.872 359.376 197.216 421.958 183.366C484.54 169.515 559.178 180.096 621.76 166.246C684.342 152.395 734.868 114.114 760.131 94.974L784.999 73.1866L799.999 173.767L808.146 228.396C777.319 236.261 731.26 266.718 669.606 282.448C607.951 298.177 536.656 276.718 475.002 292.448C413.347 308.177 395.234 353.145 333.579 368.875C271.925 384.604 237.687 346.797 135.27 370.257L47.5776 388.96L-37.0091 406.489L-48.2968 330.802Z"
        fill="#ADD5F0"/>
  <path fill-rule="evenodd" clip-rule="evenodd"
        d="M-44.651 400.711L63.4068 351.387C162.814 305.049 206.288 385.489 275.045 344.125C318.307 311.158 361.171 263.436 423.887 249.861C486.603 236.286 563.104 250.621 625.82 237.046C688.536 223.471 737.468 181.986 761.933 161.243L785.831 137.506L807.394 251.289L819.105 313.09C788.277 320.951 743.393 353.768 681.737 369.49C620.082 385.212 546.294 358.731 484.638 374.453C422.982 390.175 407.404 440.242 345.748 455.963C284.092 471.685 246.929 427.99 144.343 451.099L56.4177 469.328L-28.4252 486.334L-44.651 400.711Z"
        fill="#0099FF"/>
</svg>
