<svg fill="none" xmlns="http://www.w3.org/2000/svg" preserveAspectRatio="none">
  <path d="M3.61328 253.36L817.186 247.174L811.387 510.568L-2.18711 516.754L3.61328 253.36Z" fill="#0099FF"/>
  <path fill-rule="evenodd" clip-rule="evenodd"
        d="M-75.9009 273.898L39.6027 226.038C145.922 181.153 185.864 251.235 260.009 211.892C307.112 180.954 354.762 136.886 420.82 122.518C486.878 108.15 565.444 118.145 631.502 103.777C697.56 89.4084 751.109 50.677 777.884 31.3113L804.264 9.29859L819.265 109.879L827.412 164.508C794.864 172.629 746.085 203.492 680.989 219.734C615.894 235.977 540.937 215.063 475.842 231.306C410.746 247.548 391.298 292.715 326.203 308.957C261.107 325.199 225.331 287.622 117.22 311.93L24.6625 331.358L-64.6128 349.585L-75.9009 273.898Z"
        fill="#D7E6F0"/>
  <path fill-rule="evenodd" clip-rule="evenodd"
        d="M-60.7935 338.228L54.7101 290.369C161.03 245.483 200.971 315.565 275.116 276.222C322.22 245.285 369.87 201.216 435.928 186.848C501.985 172.48 580.552 182.475 646.609 168.107C712.667 153.738 766.217 115.007 792.991 95.6413L819.371 73.6287L834.372 174.209L842.52 228.838C809.972 236.959 761.193 267.822 696.097 284.065C631.001 300.307 556.045 279.393 490.949 295.636C425.854 311.878 406.406 357.045 341.31 373.287C276.215 389.529 240.439 351.952 132.327 376.26L39.7699 395.688L-49.5054 413.915L-60.7935 338.228Z"
        fill="#ADD5F0"/>
  <path fill-rule="evenodd" clip-rule="evenodd"
        d="M-57.5384 408.201L56.73 357.925C161.859 310.709 206.98 390.92 279.774 348.935C325.635 315.566 371.201 267.423 437.394 253.318C503.587 239.214 584.067 252.95 650.26 238.845C716.453 224.741 768.359 182.795 794.312 161.822L819.692 137.855L841.445 251.638L853.259 313.438C820.712 321.561 773.144 354.792 708.05 371.038C642.956 387.285 565.438 361.362 500.344 377.608C435.25 393.854 418.412 444.124 353.318 460.37C288.224 476.617 249.439 433.156 141.158 457.133L48.3653 476.103L-41.1697 493.823L-57.5384 408.201Z"
        fill="#0099FF"/>
</svg>
