<svg fill="none" xmlns="http://www.w3.org/2000/svg" preserveAspectRatio="none">
  <rect width="611.343" height="102.116" transform="matrix(0.999348 -0.0361097 -0.0591776 0.998248 -86.1523 251.049)"
        fill="#0099FF"/>
  <path fill-rule="evenodd" clip-rule="evenodd"
        d="M-68.3328 161.09L14.0299 131.283C89.8933 103.266 113.205 153.415 166.591 128.266C200.86 108.141 236.29 78.8702 282.618 70.8978C328.946 62.9254 382.431 72.3437 428.759 64.3713C475.088 56.3989 514.259 31.0358 533.845 18.3542L553.317 3.81325L557.642 74.4689L559.99 112.845C537.101 117.5 501.682 137.52 455.905 146.831C410.127 156.141 359.779 139.215 314.001 148.526C268.223 157.836 252.141 188.75 206.363 198.06C160.585 207.37 138.202 180.035 62.3326 193.636L-2.53873 204.315L-65.079 214.258L-68.3328 161.09Z"
        fill="#D7E6F0"/>
  <path fill-rule="evenodd" clip-rule="evenodd"
        d="M-62.3172 200.987L20.0456 171.18C95.9089 143.163 119.221 193.312 172.606 168.163C206.876 148.038 242.306 118.767 288.634 110.795C334.962 102.822 388.447 112.241 434.775 104.268C481.103 96.2958 520.275 70.9328 539.861 58.2512L559.333 43.7102L563.657 114.366L566.006 152.742C543.117 157.397 507.698 177.417 461.92 186.728C416.142 196.038 365.794 179.112 320.016 188.423C274.239 197.733 258.157 228.647 212.379 237.957C166.601 247.267 144.217 219.932 68.3482 233.533L3.47689 244.212L-59.0634 254.155L-62.3172 200.987Z"
        fill="#ADD5F0"/>
  <path fill-rule="evenodd" clip-rule="evenodd"
        d="M-64.2323 249.912L17.4192 218.4C92.5966 188.738 118.902 246.101 171.509 219.081C205.061 197.231 239.288 165.066 285.695 157.289C332.103 149.513 386.695 161.604 433.103 153.827C479.511 146.051 517.734 118.406 536.846 104.584L555.741 88.6553L563.966 168.711L568.434 212.192C545.545 216.844 510.825 238.545 465.047 247.85C419.269 257.154 367.438 236.654 321.66 245.959C275.882 255.264 261.307 289.808 215.529 299.113C169.751 308.418 145.628 276.89 69.6586 290.242L4.64961 300.583L-58.0426 310.154L-64.2323 249.912Z"
        fill="#0099FF"/>
</svg>
