<svg fill="none" xmlns="http://www.w3.org/2000/svg"
     preserveAspectRatio="none">
  <rect x="-19" y="218" width="358" height="3000" fill="#0099FF"/>
  <path fill-rule="evenodd" clip-rule="evenodd"
        d="M-72.8043 158.369L-16.94 129.376C34.46 102.13 56.0974 150.184 91.7275 125.793C114.204 106.313 136.599 78.0443 168.896 70.1801C201.194 62.316 240.332 71.1202 272.63 63.256C304.927 55.3919 330.384 30.8593 343.112 18.593L355.575 4.54156L365.689 72.3739L371.183 109.217C355.297 113.79 331.99 133.175 300.218 142.321C268.447 151.467 230.802 135.44 199.031 144.586C167.26 153.733 158.847 183.492 127.076 192.639C95.3044 201.785 76.5983 175.635 23.7608 189.037L-21.512 199.584L-65.1931 209.414L-72.8043 158.369Z"
        fill="#D7E6F0"/>
  <path fill-rule="evenodd" clip-rule="evenodd"
        d="M-64.5397 196.656L-8.67536 167.663C42.7247 140.417 64.362 188.471 99.9921 164.08C122.468 144.6 144.864 116.331 177.161 108.467C209.459 100.603 248.597 109.407 280.895 101.543C313.192 93.6787 338.649 69.1461 351.377 56.8799L363.839 42.8284L373.954 110.661L379.447 147.503C363.562 152.077 340.254 171.462 308.483 180.608C276.712 189.754 239.067 173.727 207.296 182.873C175.524 192.02 167.112 221.779 135.34 230.926C103.569 240.072 84.863 213.922 32.0255 227.324L-13.2474 237.871L-56.9285 247.701L-64.5397 196.656Z"
        fill="#ADD5F0"/>
  <path fill-rule="evenodd" clip-rule="evenodd"
        d="M-61.0429 243.649L-5.85633 213.021C44.8902 184.198 69.3833 239.167 104.271 212.982C126.063 191.849 147.311 160.806 179.685 153.13C212.059 145.453 252.254 156.819 284.628 149.143C317.001 141.466 341.554 114.748 353.83 101.388L365.742 86.0063L379.578 162.848L387.093 204.584C371.207 209.154 348.566 230.149 316.793 239.291C285.021 248.432 245.963 228.978 214.19 238.119C182.418 247.26 175.443 280.499 143.671 289.641C111.899 298.782 91.5339 268.613 38.6 281.777L-6.80482 292L-50.6314 301.473L-61.0429 243.649Z"
        fill="#0099FF"/>
</svg>
