<svg width="1440" height="541" viewBox="0 0 1440 541" fill="none" xmlns="http://www.w3.org/2000/svg">
<path fill-rule="evenodd" clip-rule="evenodd" d="M-85.7457 426.867L114.945 351.145C299.706 280.197 366.155 383.959 495.277 322.42C577.51 274.411 661.131 206.687 775.465 182.885C889.8 159.083 1024.86 171.4 1139.2 147.599C1253.53 123.797 1347.14 63.8775 1393.94 33.9175L1440.15 0.000575482L1462.58 150.358L1474.76 232.024C1418.39 245.314 1333.27 293.269 1220.53 319.849C1107.79 346.428 979.326 317.611 866.586 344.191C753.846 370.771 718.792 439.182 606.052 465.762C493.312 492.342 432.935 437.194 245.787 477.338L85.6101 509.631L-68.8689 540.012L-85.7457 426.867Z" fill="#D7E6F0"/>
</svg>
