<svg width="1440" height="900" viewBox="0 0 1440 900" fill="none" xmlns="http://www.w3.org/2000/svg">
<g clip-path="url(#clip0)">
<rect width="1440" height="900" fill="url(#paint0_linear)"/>
<g filter="url(#filter0_bi)">
<path fill-rule="evenodd" clip-rule="evenodd" d="M1478.29 844.245L1616.04 273.665C1521.04 416.567 1514.04 395.863 1197.4 208.272C985.601 55.7257 881.178 1.9176 741.232 22.785C601.285 43.6523 461.848 118.436 327.082 94.6115C192.833 66.3182 60.0089 -53.1584 0.654756 -134.342L-58.1813 -219.995L-166.964 718.526L-98.8042 723.735C-30.6437 728.943 108.027 739.539 244.348 749.956C380.669 760.373 519.34 770.969 655.661 781.386C791.981 791.802 930.652 802.399 1066.97 812.815C1203.29 823.232 1341.96 833.828 1410.13 839.037L1478.29 844.245Z" fill="url(#paint1_linear)" fill-opacity="0.2"/>
<path fill-rule="evenodd" clip-rule="evenodd" d="M1478.29 844.245L1616.04 273.665C1521.04 416.567 1514.04 395.863 1197.4 208.272C985.601 55.7257 881.178 1.9176 741.232 22.785C601.285 43.6523 461.848 118.436 327.082 94.6115C192.833 66.3182 60.0089 -53.1584 0.654756 -134.342L-58.1813 -219.995L-166.964 718.526L-98.8042 723.735C-30.6437 728.943 108.027 739.539 244.348 749.956C380.669 760.373 519.34 770.969 655.661 781.386C791.981 791.802 930.652 802.399 1066.97 812.815C1203.29 823.232 1341.96 833.828 1410.13 839.037L1478.29 844.245Z" stroke="black"/>
</g>
<g filter="url(#filter1_bi)">
<path fill-rule="evenodd" clip-rule="evenodd" d="M1355.25 954.665L1493 384.085C1540.5 515.62 1391 506.283 1074.37 318.692C862.569 166.146 765.447 118.418 625.5 139.285C485.554 160.153 338.816 228.856 204.049 205.031C69.8002 176.738 -63.0238 57.2615 -122.378 -23.9224L-181.214 -109.575L-289.997 828.946L-221.837 834.155C-153.676 839.363 -15.0054 849.959 121.315 860.376C257.636 870.793 396.307 881.389 532.628 891.806C668.949 902.222 807.62 912.819 943.94 923.235C1080.26 933.652 1218.93 944.248 1287.09 949.457L1355.25 954.665Z" fill="url(#paint2_linear)" fill-opacity="0.5"/>
<path fill-rule="evenodd" clip-rule="evenodd" d="M1355.25 954.665L1493 384.085C1540.5 515.62 1391 506.283 1074.37 318.692C862.569 166.146 765.447 118.418 625.5 139.285C485.554 160.153 338.816 228.856 204.049 205.031C69.8002 176.738 -63.0238 57.2615 -122.378 -23.9224L-181.214 -109.575L-289.997 828.946L-221.837 834.155C-153.676 839.363 -15.0054 849.959 121.315 860.376C257.636 870.793 396.307 881.389 532.628 891.806C668.949 902.222 807.62 912.819 943.94 923.235C1080.26 933.652 1218.93 944.248 1287.09 949.457L1355.25 954.665Z" stroke="black"/>
</g>
<g filter="url(#filter2_bi)">
<path fill-rule="evenodd" clip-rule="evenodd" d="M1441.63 894.835C1441.63 894.835 1674.06 663.806 1562.04 636.198C1450.01 608.59 1312.03 566.776 1167.53 505.88C1023.03 444.984 852.844 323.732 689.739 297.102C526.634 270.472 392.236 306.302 272.536 314.208C152.836 322.115 -79.0473 313.253 -106.009 163.873L-247.253 3.28864L-356.223 744.415L-284.519 760.253C-212.815 776.091 -69.407 807.767 74.0013 839.443C217.409 871.119 360.818 902.795 504.226 934.471C647.634 966.147 791.042 997.823 934.45 1029.5C1077.86 1061.17 1221.27 1092.85 1292.97 1108.69L1364.68 1124.53L1441.63 894.835Z" fill="url(#paint3_linear)" fill-opacity="0.9"/>
<path fill-rule="evenodd" clip-rule="evenodd" d="M1441.63 894.835C1441.63 894.835 1674.06 663.806 1562.04 636.198C1450.01 608.59 1312.03 566.776 1167.53 505.88C1023.03 444.984 852.844 323.732 689.739 297.102C526.634 270.472 392.236 306.302 272.536 314.208C152.836 322.115 -79.0473 313.253 -106.009 163.873L-247.253 3.28864L-356.223 744.415L-284.519 760.253C-212.815 776.091 -69.407 807.767 74.0013 839.443C217.409 871.119 360.818 902.795 504.226 934.471C647.634 966.147 791.042 997.823 934.45 1029.5C1077.86 1061.17 1221.27 1092.85 1292.97 1108.69L1364.68 1124.53L1441.63 894.835Z" stroke="black"/>
</g>
<g filter="url(#filter3_bi)">
<path fill-rule="evenodd" clip-rule="evenodd" d="M-282.983 540.986L-195.13 522.611C-107.277 504.237 49.9459 579.651 217.248 538.593C361.278 497.237 513.983 447.099 708.883 495.254C901.349 542.808 1107.2 644.616 1268.88 689.99C1430.39 736.43 1638.16 758.866 1479.34 764.974L1463.3 786.297L1471.91 823.038L1453.48 931.732C1371.53 922.508 1332.96 1000.06 1166.72 981.344C1000.49 962.634 834.248 943.923 668.011 925.212C501.773 906.501 318.738 966.211 152.5 947.5C-13.7376 928.789 -163.178 831.658 -246.297 822.303L-346.181 840.831L-282.983 540.986Z" fill="url(#paint4_linear)"/>
<path fill-rule="evenodd" clip-rule="evenodd" d="M-282.983 540.986L-195.13 522.611C-107.277 504.237 49.9459 579.651 217.248 538.593C361.278 497.237 513.983 447.099 708.883 495.254C901.349 542.808 1107.2 644.616 1268.88 689.99C1430.39 736.43 1638.16 758.866 1479.34 764.974L1463.3 786.297L1471.91 823.038L1453.48 931.732C1371.53 922.508 1332.96 1000.06 1166.72 981.344C1000.49 962.634 834.248 943.923 668.011 925.212C501.773 906.501 318.738 966.211 152.5 947.5C-13.7376 928.789 -163.178 831.658 -246.297 822.303L-346.181 840.831L-282.983 540.986Z" stroke="black"/>
</g>
<g filter="url(#filter4_b)">
<path d="M0 -10H1440V951H0V-10Z" fill="#C4C4C4" fill-opacity="0.1"/>
</g>
</g>
<defs>
<filter id="filter0_bi" x="-252.964" y="-305.996" width="1955" height="1236.24" filterUnits="userSpaceOnUse" color-interpolation-filters="sRGB">
<feFlood flood-opacity="0" result="BackgroundImageFix"/>
<feGaussianBlur in="BackgroundImage" stdDeviation="43"/>
<feComposite in2="SourceAlpha" operator="in" result="effect1_backgroundBlur"/>
<feBlend mode="normal" in="SourceGraphic" in2="effect1_backgroundBlur" result="shape"/>
<feColorMatrix in="SourceAlpha" type="matrix" values="0 0 0 0 0 0 0 0 0 0 0 0 0 0 0 0 0 0 127 0" result="hardAlpha"/>
<feOffset dy="4"/>
<feGaussianBlur stdDeviation="10"/>
<feComposite in2="hardAlpha" operator="arithmetic" k2="-1" k3="1"/>
<feColorMatrix type="matrix" values="0 0 0 0 0 0 0 0 0 0 0 0 0 0 0 0 0 0 0.25 0"/>
<feBlend mode="normal" in2="shape" result="effect2_innerShadow"/>
</filter>
<filter id="filter1_bi" x="-375.997" y="-195.576" width="1963.64" height="1236.24" filterUnits="userSpaceOnUse" color-interpolation-filters="sRGB">
<feFlood flood-opacity="0" result="BackgroundImageFix"/>
<feGaussianBlur in="BackgroundImage" stdDeviation="43"/>
<feComposite in2="SourceAlpha" operator="in" result="effect1_backgroundBlur"/>
<feBlend mode="normal" in="SourceGraphic" in2="effect1_backgroundBlur" result="shape"/>
<feColorMatrix in="SourceAlpha" type="matrix" values="0 0 0 0 0 0 0 0 0 0 0 0 0 0 0 0 0 0 127 0" result="hardAlpha"/>
<feOffset dy="4"/>
<feGaussianBlur stdDeviation="10"/>
<feComposite in2="hardAlpha" operator="arithmetic" k2="-1" k3="1"/>
<feColorMatrix type="matrix" values="0 0 0 0 0 0 0 0 0 0 0 0 0 0 0 0 0 0 0.25 0"/>
<feBlend mode="normal" in2="shape" result="effect2_innerShadow"/>
</filter>
<filter id="filter2_bi" x="-370.223" y="-10.7114" width="1976.78" height="1149.24" filterUnits="userSpaceOnUse" color-interpolation-filters="sRGB">
<feFlood flood-opacity="0" result="BackgroundImageFix"/>
<feGaussianBlur in="BackgroundImage" stdDeviation="7"/>
<feComposite in2="SourceAlpha" operator="in" result="effect1_backgroundBlur"/>
<feBlend mode="normal" in="SourceGraphic" in2="effect1_backgroundBlur" result="shape"/>
<feColorMatrix in="SourceAlpha" type="matrix" values="0 0 0 0 0 0 0 0 0 0 0 0 0 0 0 0 0 0 127 0" result="hardAlpha"/>
<feOffset dy="4"/>
<feGaussianBlur stdDeviation="10"/>
<feComposite in2="hardAlpha" operator="arithmetic" k2="-1" k3="1"/>
<feColorMatrix type="matrix" values="0 0 0 0 0 0 0 0 0 0 0 0 0 0 0 0 0 0 0.25 0"/>
<feBlend mode="normal" in2="shape" result="effect2_innerShadow"/>
</filter>
<filter id="filter3_bi" x="-372.181" y="449.547" width="1934.36" height="560.722" filterUnits="userSpaceOnUse" color-interpolation-filters="sRGB">
<feFlood flood-opacity="0" result="BackgroundImageFix"/>
<feGaussianBlur in="BackgroundImage" stdDeviation="13"/>
<feComposite in2="SourceAlpha" operator="in" result="effect1_backgroundBlur"/>
<feBlend mode="normal" in="SourceGraphic" in2="effect1_backgroundBlur" result="shape"/>
<feColorMatrix in="SourceAlpha" type="matrix" values="0 0 0 0 0 0 0 0 0 0 0 0 0 0 0 0 0 0 127 0" result="hardAlpha"/>
<feOffset dy="4"/>
<feGaussianBlur stdDeviation="10"/>
<feComposite in2="hardAlpha" operator="arithmetic" k2="-1" k3="1"/>
<feColorMatrix type="matrix" values="0 0 0 0 0 0 0 0 0 0 0 0 0 0 0 0 0 0 0.25 0"/>
<feBlend mode="normal" in2="shape" result="effect2_innerShadow"/>
</filter>
<filter id="filter4_b" x="-2" y="-12" width="1444" height="965" filterUnits="userSpaceOnUse" color-interpolation-filters="sRGB">
<feFlood flood-opacity="0" result="BackgroundImageFix"/>
<feGaussianBlur in="BackgroundImage" stdDeviation="1"/>
<feComposite in2="SourceAlpha" operator="in" result="effect1_backgroundBlur"/>
<feBlend mode="normal" in="SourceGraphic" in2="effect1_backgroundBlur" result="shape"/>
</filter>
<linearGradient id="paint0_linear" x1="415.5" y1="-16.2598" x2="1405.31" y2="397.609" gradientUnits="userSpaceOnUse">
<stop stop-color="#CD63F2"/>
<stop offset="0.322917" stop-color="#C17CED"/>
<stop offset="0.635417" stop-color="#D5AAF2"/>
<stop offset="0.953125" stop-color="#F0D9FF"/>
</linearGradient>
<linearGradient id="paint1_linear" x1="1518.49" y1="357.061" x2="-119.326" y2="167.223" gradientUnits="userSpaceOnUse">
<stop stop-color="#7ADEFE"/>
<stop offset="0.515625" stop-color="#44ABD0"/>
<stop offset="1" stop-color="#1980A5"/>
</linearGradient>
<linearGradient id="paint2_linear" x1="1395.46" y1="467.481" x2="-242.359" y2="277.643" gradientUnits="userSpaceOnUse">
<stop offset="0.0364583" stop-color="#73B4F1"/>
<stop offset="0.510417" stop-color="#3C87CC"/>
<stop offset="1" stop-color="#0B59A2"/>
</linearGradient>
<linearGradient id="paint3_linear" x1="1501.24" y1="772.093" x2="-302.373" y2="167.799" gradientUnits="userSpaceOnUse">
<stop stop-color="#3768B1"/>
<stop offset="0.536458" stop-color="#1D4F9A"/>
<stop offset="0.916667" stop-color="#023684"/>
</linearGradient>
<linearGradient id="paint4_linear" x1="-262.276" y1="543.94" x2="1712.16" y2="881.037" gradientUnits="userSpaceOnUse">
<stop stop-color="#041647"/>
<stop offset="0.630208" stop-color="#233A74"/>
<stop offset="0.984375" stop-color="#5D76B7"/>
</linearGradient>
<clipPath id="clip0">
<rect width="1440" height="900" fill="white"/>
</clipPath>
</defs>
</svg>
